<svg width="176" height="50" viewBox="0 0 176 50" fill="none" xmlns="http://www.w3.org/2000/svg">
<rect x="0.665039" y="0.482178" width="175.335" height="49.313" rx="8" fill="white"/>
<path fill-rule="evenodd" clip-rule="evenodd" d="M39.0708 25.2802C39.1006 22.973 40.3102 20.8417 42.2759 19.6332C41.0302 17.8542 39.0185 16.7666 36.8477 16.6987C34.5639 16.459 32.3498 18.0653 31.186 18.0653C29.9997 18.0653 28.2078 16.7225 26.2783 16.7622C23.7395 16.8442 21.4301 18.2527 20.1949 20.4722C17.5646 25.0262 19.5266 31.7191 22.0462 35.4002C23.3068 37.2027 24.7801 39.2162 26.7079 39.1448C28.5944 39.0665 29.299 37.9418 31.5761 37.9418C33.8321 37.9418 34.4931 39.1448 36.46 39.0994C38.4842 39.0665 39.7596 37.2888 40.976 35.4692C41.8818 34.1849 42.5788 32.7654 43.0411 31.2633C40.6369 30.2464 39.0737 27.8906 39.0708 25.2802Z" fill="#111111"/>
<path fill-rule="evenodd" clip-rule="evenodd" d="M35.3561 14.2778C36.4599 12.9528 37.0036 11.2498 36.8719 9.5304C35.1857 9.7075 33.6281 10.5134 32.5095 11.7875C31.4049 13.0446 30.8453 14.6893 30.954 16.3592C32.6628 16.3768 34.2853 15.6096 35.3561 14.2778Z" fill="#111111"/>
<path d="M74.7629 27.4938C77.1719 27.4939 78.76 29.3634 78.76 32.2512C78.76 35.1471 77.1812 37.0076 74.7987 37.0076C73.5672 37.0708 72.4073 36.4376 71.8122 35.3772H71.7671V39.9929H69.8187V27.5913H71.7047V29.1413H71.7405C72.362 28.0876 73.5233 27.4546 74.7629 27.4938ZM85.2101 27.4939C87.6193 27.4939 89.2073 29.3634 89.2073 32.2512C89.2073 35.1471 87.6285 37.0076 85.246 37.0076C84.0145 37.0708 82.8545 36.4376 82.2595 35.3772H82.2144V39.9929H80.266V27.5913H82.1519V29.1413H82.1878C82.8093 28.0876 83.9705 27.4546 85.2101 27.4939ZM99.1979 23.9155C101.949 23.9155 103.835 25.4302 103.898 27.6355H101.932C101.814 26.36 100.74 25.5901 99.1703 25.5901C97.6007 25.5901 96.5267 26.369 96.5267 27.5029C96.5267 28.4065 97.2127 28.9382 98.8908 29.3452L100.325 29.691C102.996 30.3112 104.106 31.3646 104.106 33.2342C104.106 35.6254 102.166 37.1231 99.0802 37.1231C96.1929 37.1231 94.2435 35.6606 94.1176 33.3487L96.1121 33.3488C96.2564 34.6163 97.5106 35.4486 99.2245 35.4486C100.867 35.4486 102.048 34.6163 102.048 33.4734C102.048 32.4813 101.336 31.8873 99.6484 31.4802L97.9611 31.0812C95.5705 30.5143 94.4606 29.4166 94.4606 27.6355C94.4606 25.4302 96.4182 23.9155 99.1979 23.9155ZM115.663 27.4768C118.416 27.4768 120.166 29.3192 120.166 32.2512C120.166 35.1913 118.425 37.0257 115.663 37.0257C112.903 37.0257 111.162 35.1913 111.162 32.2512C111.162 29.3192 112.921 27.4768 115.663 27.4768ZM131.441 27.4768C134.067 27.4768 135.718 29.2478 135.718 32.0733V32.7287H129.014V32.8443C128.952 33.538 129.196 34.2247 129.684 34.7298C130.173 35.2348 130.859 35.5094 131.568 35.4838C132.513 35.5707 133.405 35.0377 133.76 34.1731L135.61 34.1731C135.348 35.8647 133.67 37.0257 131.523 37.0257C128.761 37.0257 127.047 35.2094 127.047 32.2954C127.047 29.3725 128.771 27.4768 131.441 27.4768ZM108.311 25.386V27.5913H110.116V29.1061H108.311V34.2434C108.311 35.0415 108.673 35.4134 109.466 35.4134C109.68 35.4097 109.894 35.395 110.107 35.3692V36.8749C109.75 36.9403 109.388 36.9699 109.025 36.9633C107.103 36.9633 106.354 36.2547 106.354 34.4474V29.1061H104.973V27.5913H106.354V25.386H108.311ZM63.9081 24.1286L68.6086 36.9101H66.4708L65.2801 33.4554H60.3175L59.1257 36.9101H57.0238L61.7243 24.1286H63.9081ZM125.959 27.4938C126.184 27.4931 126.408 27.517 126.627 27.5652V29.3544C126.343 29.2693 126.048 29.2303 125.751 29.2388C125.178 29.216 124.624 29.4401 124.234 29.8523C123.843 30.2645 123.656 30.8236 123.721 31.3828V36.9101H121.773V27.5913H123.631V29.1775H123.676C123.935 28.1564 124.888 27.4537 125.959 27.4938ZM115.663 29.0528C114.085 29.0528 113.147 30.249 113.147 32.2512C113.147 34.2706 114.085 35.4486 115.663 35.4486C117.242 35.4486 118.181 34.2706 118.181 32.2512C118.181 30.2399 117.242 29.0528 115.663 29.0528ZM74.2489 29.1242C72.7602 29.1242 71.7589 30.3907 71.7589 32.2512C71.7589 34.1288 72.7602 35.3863 74.2489 35.3863C75.7642 35.3863 76.7573 34.155 76.7573 32.2512C76.7573 30.3646 75.7642 29.1242 74.2489 29.1242ZM84.6962 29.1242C83.2075 29.1242 82.2062 30.3907 82.2062 32.2512C82.2062 34.1288 83.2075 35.3863 84.6962 35.3863C86.2115 35.3863 87.2046 34.155 87.2046 32.2512C87.2046 30.3646 86.2115 29.1242 84.6962 29.1242ZM62.8259 26.2545H62.7717L60.8315 31.8612H64.7651L62.8259 26.2545ZM131.441 29.0267C130.8 29.0229 130.184 29.2707 129.73 29.7148C129.276 30.1589 129.022 30.7627 129.023 31.3918H133.769C133.804 30.7684 133.573 30.1588 133.131 29.7098C132.689 29.2609 132.077 29.0133 131.441 29.0267Z" fill="#111111" fill-opacity="0.8"/>
<path d="M57.9902 21V12.4688H60.3984C61.1406 12.4688 61.7969 12.6328 62.3672 12.9609C62.9375 13.2891 63.377 13.7559 63.6855 14.3613C63.998 14.9668 64.1562 15.6621 64.1602 16.4473V16.9922C64.1602 17.7969 64.0039 18.502 63.6914 19.1074C63.3828 19.7129 62.9395 20.1777 62.3613 20.502C61.7871 20.8262 61.1172 20.9922 60.3516 21H57.9902ZM59.1152 13.3945V20.0801H60.2988C61.166 20.0801 61.8398 19.8105 62.3203 19.2715C62.8047 18.7324 63.0469 17.9648 63.0469 16.9688V16.4707C63.0469 15.502 62.8184 14.75 62.3613 14.2148C61.9082 13.6758 61.2637 13.4023 60.4277 13.3945H59.1152ZM72.0677 17.0098C72.0677 17.8457 71.9271 18.5762 71.6459 19.2012C71.3646 19.8223 70.9662 20.2969 70.4505 20.625C69.9349 20.9531 69.3334 21.1172 68.6459 21.1172C67.974 21.1172 67.3783 20.9531 66.8587 20.625C66.3392 20.293 65.9349 19.8223 65.6459 19.2129C65.3607 18.5996 65.2142 17.8906 65.2064 17.0859V16.4707C65.2064 15.6504 65.349 14.9258 65.6341 14.2969C65.9193 13.668 66.3216 13.1875 66.8412 12.8555C67.3646 12.5195 67.9623 12.3516 68.6341 12.3516C69.3177 12.3516 69.9193 12.5176 70.4388 12.8496C70.9623 13.1777 71.3646 13.6562 71.6459 14.2852C71.9271 14.9102 72.0677 15.6387 72.0677 16.4707V17.0098ZM70.9486 16.459C70.9486 15.4473 70.7455 14.6719 70.3392 14.1328C69.933 13.5898 69.3646 13.3184 68.6341 13.3184C67.9232 13.3184 67.3627 13.5898 66.9525 14.1328C66.5462 14.6719 66.3373 15.4219 66.3255 16.3828V17.0098C66.3255 17.9902 66.5306 18.7617 66.9408 19.3242C67.3548 19.8828 67.9232 20.1621 68.6459 20.1621C69.3724 20.1621 69.9349 19.8984 70.3334 19.3711C70.7318 18.8398 70.9369 18.0801 70.9486 17.0918V16.459ZM75.2351 18.3105L75.3991 19.4355L75.6394 18.4219L77.3269 12.4688H78.2761L79.9226 18.4219L80.157 19.4531L80.3386 18.3047L81.6628 12.4688H82.7937L80.7253 21H79.6999L77.9421 14.7832L77.8073 14.1328L77.6726 14.7832L75.8503 21H74.8249L72.7624 12.4688H73.8874L75.2351 18.3105ZM90.2442 21H89.1134L84.8184 14.4258V21H83.6876V12.4688H84.8184L89.1251 19.0723V12.4688H90.2442V21ZM93.0131 20.0801H97.0561V21H91.8823V12.4688H93.0131V20.0801ZM104.155 17.0098C104.155 17.8457 104.014 18.5762 103.733 19.2012C103.452 19.8223 103.054 20.2969 102.538 20.625C102.022 20.9531 101.421 21.1172 100.733 21.1172C100.061 21.1172 99.4656 20.9531 98.9461 20.625C98.4266 20.293 98.0223 19.8223 97.7332 19.2129C97.448 18.5996 97.3016 17.8906 97.2938 17.0859V16.4707C97.2938 15.6504 97.4363 14.9258 97.7215 14.2969C98.0066 13.668 98.409 13.1875 98.9285 12.8555C99.452 12.5195 100.05 12.3516 100.721 12.3516C101.405 12.3516 102.007 12.5176 102.526 12.8496C103.05 13.1777 103.452 13.6562 103.733 14.2852C104.014 14.9102 104.155 15.6387 104.155 16.4707V17.0098ZM103.036 16.459C103.036 15.4473 102.833 14.6719 102.427 14.1328C102.02 13.5898 101.452 13.3184 100.721 13.3184C100.011 13.3184 99.45 13.5898 99.0398 14.1328C98.6336 14.6719 98.4246 15.4219 98.4129 16.3828V17.0098C98.4129 17.9902 98.618 18.7617 99.0281 19.3242C99.4422 19.8828 100.011 20.1621 100.733 20.1621C101.46 20.1621 102.022 19.8984 102.421 19.3711C102.819 18.8398 103.024 18.0801 103.036 17.0918V16.459ZM110.065 18.7734H106.49L105.688 21H104.528L107.785 12.4688H108.77L112.033 21H110.879L110.065 18.7734ZM106.83 17.8477H109.731L108.278 13.8574L106.83 17.8477ZM112.822 21V12.4688H115.23C115.972 12.4688 116.628 12.6328 117.199 12.9609C117.769 13.2891 118.209 13.7559 118.517 14.3613C118.83 14.9668 118.988 15.6621 118.992 16.4473V16.9922C118.992 17.7969 118.835 18.502 118.523 19.1074C118.214 19.7129 117.771 20.1777 117.193 20.502C116.619 20.8262 115.949 20.9922 115.183 21H112.822ZM113.947 13.3945V20.0801H115.13C115.998 20.0801 116.671 19.8105 117.152 19.2715C117.636 18.7324 117.878 17.9648 117.878 16.9688V16.4707C117.878 15.502 117.65 14.75 117.193 14.2148C116.74 13.6758 116.095 13.4023 115.259 13.3945H113.947ZM129.516 17.0098C129.516 17.8457 129.375 18.5762 129.094 19.2012C128.813 19.8223 128.414 20.2969 127.899 20.625C127.383 20.9531 126.781 21.1172 126.094 21.1172C125.422 21.1172 124.826 20.9531 124.307 20.625C123.787 20.293 123.383 19.8223 123.094 19.2129C122.809 18.5996 122.662 17.8906 122.655 17.0859V16.4707C122.655 15.6504 122.797 14.9258 123.082 14.2969C123.367 13.668 123.77 13.1875 124.289 12.8555C124.813 12.5195 125.41 12.3516 126.082 12.3516C126.766 12.3516 127.367 12.5176 127.887 12.8496C128.41 13.1777 128.813 13.6562 129.094 14.2852C129.375 14.9102 129.516 15.6387 129.516 16.4707V17.0098ZM128.397 16.459C128.397 15.4473 128.194 14.6719 127.787 14.1328C127.381 13.5898 126.813 13.3184 126.082 13.3184C125.371 13.3184 124.811 13.5898 124.401 14.1328C123.994 14.6719 123.785 15.4219 123.774 16.3828V17.0098C123.774 17.9902 123.979 18.7617 124.389 19.3242C124.803 19.8828 125.371 20.1621 126.094 20.1621C126.821 20.1621 127.383 19.8984 127.781 19.3711C128.18 18.8398 128.385 18.0801 128.397 17.0918V16.459ZM137.4 21H136.269L131.974 14.4258V21H130.843V12.4688H131.974L136.281 19.0723V12.4688H137.4V21Z" fill="#111111"/>
</svg>
