<svg width="58" height="58" viewBox="0 0 58 58" fill="none" xmlns="http://www.w3.org/2000/svg">
<path d="M22.5232 32.0933H29.9907V49.4933C29.9907 52.055 33.1807 53.2633 34.8724 51.33L53.1665 30.5467C54.7615 28.7342 53.4807 25.9067 51.064 25.9067H43.5965V8.50666C43.5965 5.945 40.4065 4.73666 38.7149 6.67L20.4207 27.4533C18.8499 29.2658 20.1307 32.0933 22.5232 32.0933Z" fill="white"/>
<path d="M20.5417 11.4792H3.625C2.63417 11.4792 1.8125 10.6575 1.8125 9.66667C1.8125 8.67584 2.63417 7.85417 3.625 7.85417H20.5417C21.5325 7.85417 22.3542 8.67584 22.3542 9.66667C22.3542 10.6575 21.5325 11.4792 20.5417 11.4792Z" fill="#B1A7FF"/>
<path d="M18.125 50.1458H3.625C2.63417 50.1458 1.8125 49.3242 1.8125 48.3333C1.8125 47.3425 2.63417 46.5208 3.625 46.5208H18.125C19.1158 46.5208 19.9375 47.3425 19.9375 48.3333C19.9375 49.3242 19.1158 50.1458 18.125 50.1458Z" fill="#B1A7FF"/>
<path d="M10.875 30.8125H3.625C2.63417 30.8125 1.8125 29.9908 1.8125 29C1.8125 28.0092 2.63417 27.1875 3.625 27.1875H10.875C11.8658 27.1875 12.6875 28.0092 12.6875 29C12.6875 29.9908 11.8658 30.8125 10.875 30.8125Z" fill="#B1A7FF"/>
</svg>
