<svg width="64" height="64" viewBox="0 0 64 64" fill="none" xmlns="http://www.w3.org/2000/svg">
<path d="M50.6667 21.3333C55.085 21.3333 58.6667 17.7516 58.6667 13.3333C58.6667 8.91505 55.085 5.33333 50.6667 5.33333C46.2484 5.33333 42.6667 8.91505 42.6667 13.3333C42.6667 17.7516 46.2484 21.3333 50.6667 21.3333Z" fill="#B1A7FF"/>
<path d="M52.8 25.12C52.7466 25.12 52.6933 25.1467 52.64 25.1467C52.3733 25.2 52.1066 25.2267 51.8133 25.28C50.6933 25.3867 49.4933 25.3333 48.2666 25.0933C47.9466 25.0133 47.68 24.96 47.3866 24.8533C46.5066 24.64 45.68 24.2933 44.9066 23.84C44.5866 23.68 44.2666 23.4667 43.9733 23.28C42.6933 22.4 41.6 21.3067 40.72 20.0267C40.5333 19.7333 40.32 19.4133 40.16 19.0933C39.7066 18.32 39.36 17.4933 39.1466 16.6133C39.04 16.32 38.9866 16.0533 38.9066 15.7333C38.6666 14.5067 38.6133 13.3067 38.72 12.1867C38.7733 11.8933 38.8 11.6267 38.8533 11.36C38.8533 11.3067 38.88 11.2533 38.88 11.2C39.2 9.54667 37.9733 8 36.2666 8H20.0533C19.68 8 19.3066 8.02667 18.96 8.05333C18.64 8.08 18.3466 8.10667 18.0266 8.16C17.7066 8.18667 17.3866 8.24 17.0933 8.29333C10.6666 9.22667 6.55998 13.3067 5.62665 19.76C5.57331 20.0533 5.51998 20.3733 5.49331 20.6933C5.43998 21.0133 5.41331 21.3067 5.38665 21.6267C5.35998 21.9733 5.33331 22.3467 5.33331 22.72V43.9467C5.33331 44.32 5.35998 44.6933 5.38665 45.04C5.41331 45.36 5.43998 45.6533 5.49331 45.9733C5.51998 46.2933 5.57331 46.6133 5.62665 46.9067C6.55998 53.36 10.6666 57.44 17.0933 58.3733C17.3866 58.4267 17.7066 58.48 18.0266 58.5067C18.3466 58.56 18.64 58.5867 18.96 58.6133C19.3066 58.64 19.68 58.6667 20.0533 58.6667H41.28C41.6533 58.6667 42.0266 58.64 42.3733 58.6133C42.6933 58.5867 42.9866 58.56 43.3066 58.5067C43.6266 58.48 43.9466 58.4267 44.24 58.3733C50.6666 57.44 54.7733 53.36 55.7066 46.9067C55.76 46.6133 55.8133 46.2933 55.84 45.9733C55.8933 45.6533 55.92 45.36 55.9466 45.04C55.9733 44.6933 56 44.32 56 43.9467V27.7333C56 26.0267 54.4533 24.8 52.8 25.12ZM18 33.3333H31.3333C32.4266 33.3333 33.3333 34.24 33.3333 35.3333C33.3333 36.4267 32.4266 37.3333 31.3333 37.3333H18C16.9066 37.3333 16 36.4267 16 35.3333C16 34.24 16.9066 33.3333 18 33.3333ZM42 48H18C16.9066 48 16 47.0933 16 46C16 44.9067 16.9066 44 18 44H42C43.0933 44 44 44.9067 44 46C44 47.0933 43.0933 48 42 48Z" fill="white"/>
</svg>
